<?xml version="1.0" encoding="UTF-8" standalone="no"?><svg xmlns="http://www.w3.org/2000/svg" xmlns:xlink="http://www.w3.org/1999/xlink" contentScriptType="application/ecmascript" contentStyleType="text/css" height="399px" preserveAspectRatio="none" style="width:1091px;height:399px;" version="1.1" viewBox="0 0 1091 399" width="1091px" zoomAndPan="magnify"><defs><filter height="300%" id="f8nxgsge75t8k" width="300%" x="-1" y="-1"><feGaussianBlur result="blurOut" stdDeviation="2.0"/><feColorMatrix in="blurOut" result="blurOut2" type="matrix" values="0 0 0 0 0 0 0 0 0 0 0 0 0 0 0 0 0 0 .4 0"/><feOffset dx="4.0" dy="4.0" in="blurOut2" result="blurOut3"/><feBlend in="SourceGraphic" in2="blurOut3" mode="normal"/></filter></defs><g><rect fill="#FEFECE" filter="url(#f8nxgsge75t8k)" height="50.2656" rx="12.5" ry="12.5" style="stroke: #A80036; stroke-width: 1.5;" width="196" x="574" y="8"/><line style="stroke: #A80036; stroke-width: 1.5;" x1="574" x2="770" y1="34.2969" y2="34.2969"/><text fill="#000000" font-family="sans-serif" font-size="14" lengthAdjust="spacingAndGlyphs" textLength="72" x="636" y="25.9951">markdown</text><text fill="#000000" font-family="sans-serif" font-size="12" lengthAdjust="spacingAndGlyphs" textLength="176" x="579" y="50.4355">Markdown format text string</text><rect fill="#FEFECE" filter="url(#f8nxgsge75t8k)" height="50.2656" rx="12.5" ry="12.5" style="stroke: #A80036; stroke-width: 1.5;" width="179" x="582.5" y="118"/><line style="stroke: #A80036; stroke-width: 1.5;" x1="582.5" x2="761.5" y1="144.2969" y2="144.2969"/><text fill="#000000" font-family="sans-serif" font-size="14" lengthAdjust="spacingAndGlyphs" textLength="95" x="624.5" y="135.9951">commonmark</text><text fill="#000000" font-family="sans-serif" font-size="12" lengthAdjust="spacingAndGlyphs" textLength="159" x="587.5" y="160.4355">CommonMark DOM (JSON)</text><rect fill="#FEFECE" filter="url(#f8nxgsge75t8k)" height="50.2656" rx="12.5" ry="12.5" style="stroke: #A80036; stroke-width: 1.5;" width="164" x="460" y="228"/><line style="stroke: #A80036; stroke-width: 1.5;" x1="460" x2="624" y1="254.2969" y2="254.2969"/><text fill="#000000" font-family="sans-serif" font-size="14" lengthAdjust="spacingAndGlyphs" textLength="76" x="504" y="245.9951">ciceromark</text><text fill="#000000" font-family="sans-serif" font-size="12" lengthAdjust="spacingAndGlyphs" textLength="144" x="465" y="270.4355">CiceroMark DOM (JSON)</text><rect fill="#FEFECE" filter="url(#f8nxgsge75t8k)" height="50.2656" rx="12.5" ry="12.5" style="stroke: #A80036; stroke-width: 1.5;" width="118" x="723" y="228"/><line style="stroke: #A80036; stroke-width: 1.5;" x1="723" x2="841" y1="254.2969" y2="254.2969"/><text fill="#000000" font-family="sans-serif" font-size="14" lengthAdjust="spacingAndGlyphs" textLength="58" x="753" y="245.9951">plaintext</text><text fill="#000000" font-family="sans-serif" font-size="12" lengthAdjust="spacingAndGlyphs" textLength="98" x="728" y="270.4355">Plain text string</text><rect fill="#FEFECE" filter="url(#f8nxgsge75t8k)" height="50.2656" rx="12.5" ry="12.5" style="stroke: #A80036; stroke-width: 1.5;" width="92" x="6" y="338"/><line style="stroke: #A80036; stroke-width: 1.5;" x1="6" x2="98" y1="364.2969" y2="364.2969"/><text fill="#000000" font-family="sans-serif" font-size="14" lengthAdjust="spacingAndGlyphs" textLength="30" x="37" y="355.9951">html</text><text fill="#000000" font-family="sans-serif" font-size="12" lengthAdjust="spacingAndGlyphs" textLength="72" x="11" y="380.4355">HTML string</text><rect fill="#FEFECE" filter="url(#f8nxgsge75t8k)" height="50.2656" rx="12.5" ry="12.5" style="stroke: #A80036; stroke-width: 1.5;" width="408" x="133" y="338"/><line style="stroke: #A80036; stroke-width: 1.5;" x1="133" x2="541" y1="364.2969" y2="364.2969"/><text fill="#000000" font-family="sans-serif" font-size="14" lengthAdjust="spacingAndGlyphs" textLength="150" x="262" y="355.9951">ciceromark_noquotes</text><text fill="#000000" font-family="sans-serif" font-size="12" lengthAdjust="spacingAndGlyphs" textLength="388" x="138" y="380.4355">CiceroMark DOM (JSON) with quotes around variables removed</text><rect fill="#FEFECE" filter="url(#f8nxgsge75t8k)" height="50.2656" rx="12.5" ry="12.5" style="stroke: #A80036; stroke-width: 1.5;" width="341" x="576.5" y="338"/><line style="stroke: #A80036; stroke-width: 1.5;" x1="576.5" x2="917.5" y1="364.2969" y2="364.2969"/><text fill="#000000" font-family="sans-serif" font-size="14" lengthAdjust="spacingAndGlyphs" textLength="68" x="713" y="355.9951">ciceroedit</text><text fill="#000000" font-family="sans-serif" font-size="12" lengthAdjust="spacingAndGlyphs" textLength="321" x="581.5" y="380.4355">Markdown string with embedded variable metadata</text><rect fill="#FEFECE" filter="url(#f8nxgsge75t8k)" height="50.2656" rx="12.5" ry="12.5" style="stroke: #A80036; stroke-width: 1.5;" width="127" x="952.5" y="338"/><line style="stroke: #A80036; stroke-width: 1.5;" x1="952.5" x2="1079.5" y1="364.2969" y2="364.2969"/><text fill="#000000" font-family="sans-serif" font-size="14" lengthAdjust="spacingAndGlyphs" textLength="33" x="999.5" y="355.9951">slate</text><text fill="#000000" font-family="sans-serif" font-size="12" lengthAdjust="spacingAndGlyphs" textLength="107" x="957.5" y="380.4355">Slate DOM (JSON)</text><rect fill="#FEFECE" filter="url(#f8nxgsge75t8k)" height="50.2656" rx="12.5" ry="12.5" style="stroke: #A80036; stroke-width: 1.5;" width="66" x="371" y="118"/><line style="stroke: #A80036; stroke-width: 1.5;" x1="371" x2="437" y1="144.2969" y2="144.2969"/><text fill="#000000" font-family="sans-serif" font-size="14" lengthAdjust="spacingAndGlyphs" textLength="22" x="393" y="135.9951">pdf</text><text fill="#000000" font-family="sans-serif" font-size="12" lengthAdjust="spacingAndGlyphs" textLength="46" x="376" y="160.4355">PDF file</text><rect fill="#FEFECE" filter="url(#f8nxgsge75t8k)" height="50.2656" rx="12.5" ry="12.5" style="stroke: #A80036; stroke-width: 1.5;" width="75" x="472.5" y="118"/><line style="stroke: #A80036; stroke-width: 1.5;" x1="472.5" x2="547.5" y1="144.2969" y2="144.2969"/><text fill="#000000" font-family="sans-serif" font-size="14" lengthAdjust="spacingAndGlyphs" textLength="33" x="493.5" y="135.9951">docx</text><text fill="#000000" font-family="sans-serif" font-size="12" lengthAdjust="spacingAndGlyphs" textLength="55" x="477.5" y="160.4355">DOCX file</text><!--MD5=[773ceba041489c44f6c4dc15f165d9f2]
link markdown to commonmark--><path d="M661.157,58.237 C658.849,74.357 658.636,95.621 660.517,112.691 " fill="none" id="markdown-&gt;commonmark" style="stroke: #A80036; stroke-width: 1.0;"/><polygon fill="#A80036" points="661.168,117.844,664.0104,108.4142,660.5424,112.8833,656.0733,109.4152,661.168,117.844" style="stroke: #A80036; stroke-width: 1.0;"/><!--MD5=[65106c73f23451b047989fc9126943aa]
link commonmark to markdown--><path d="M683.469,117.844 C685.919,101.742 686.153,80.479 684.168,63.395 " fill="none" id="commonmark-&gt;markdown" style="stroke: #A80036; stroke-width: 1.0;"/><polygon fill="#A80036" points="683.481,58.237,680.7068,67.6871,684.1425,63.1931,688.6365,66.6287,683.481,58.237" style="stroke: #A80036; stroke-width: 1.0;"/><!--MD5=[db35182727ea83590597a923007fe1a2]
link commonmark to ciceromark--><path d="M631.982,168.237 C609.71,184.773 583.125,206.725 564.363,224.007 " fill="none" id="commonmark-&gt;ciceromark" style="stroke: #A80036; stroke-width: 1.0;"/><polygon fill="#A80036" points="560.246,227.844,569.557,224.6338,563.9037,224.435,564.1025,218.7816,560.246,227.844" style="stroke: #A80036; stroke-width: 1.0;"/><!--MD5=[6475744a913df5d898804d072fc4798b]
link ciceromark to commonmark--><path d="M582.546,227.844 C604.943,211.325 631.545,189.375 650.212,172.078 " fill="none" id="ciceromark-&gt;commonmark" style="stroke: #A80036; stroke-width: 1.0;"/><polygon fill="#A80036" points="654.307,168.237,645.0064,171.4772,650.6604,171.6578,650.4798,177.3118,654.307,168.237" style="stroke: #A80036; stroke-width: 1.0;"/><!--MD5=[171d74166a5fa6ed771b073c243a0373]
link commonmark to plaintext--><path d="M696.686,168.237 C713.528,184.773 735.886,206.725 753.488,224.007 " fill="none" id="commonmark-&gt;plaintext" style="stroke: #A80036; stroke-width: 1.0;"/><polygon fill="#A80036" points="757.396,227.844,753.777,218.6841,753.8285,224.3408,748.1718,224.3922,757.396,227.844" style="stroke: #A80036; stroke-width: 1.0;"/><!--MD5=[7793accfe99976beb1995fd7ba1ad8fe]
link plaintext to markdown--><path d="M787.38,227.778 C792.315,199.746 796.489,152.963 779,118 C767.015,94.04 744.642,74.821 723.44,60.845 " fill="none" id="plaintext-&gt;markdown" style="stroke: #A80036; stroke-width: 1.0;"/><polygon fill="#A80036" points="719.219,58.12,724.6107,66.3619,723.4197,60.8319,728.9497,59.6408,719.219,58.12" style="stroke: #A80036; stroke-width: 1.0;"/><!--MD5=[b5a9392e92ebee3cbd6de8eb5b8e716c]
link ciceromark to html--><path d="M459.989,264.032 C371.01,276.917 225.971,301.8204 103.4443,336.4505 " fill="none" id="ciceromark-&gt;html" style="stroke: #A80036; stroke-width: 1.0;"/><polygon fill="#A80036" points="98.3623,337.8962,108.1133,339.2809,103.1715,336.528,105.9243,331.5862,98.3623,337.8962" style="stroke: #A80036; stroke-width: 1.0;"/><!--MD5=[0bd7bdc0d07f7f838e53d42748be2e55]
link html to ciceromark--><path d="M98.0641,349.7175 C109.674,345.592 121.749,341.2245 133,338 C242.486,306.6223 371.092,283.071 454.66,269.01 " fill="none" id="html-&gt;ciceromark" style="stroke: #A80036; stroke-width: 1.0;"/><polygon fill="#A80036" points="459.6,268.181,450.0615,265.728,454.6692,269.0097,451.3874,273.6174,459.6,268.181" style="stroke: #A80036; stroke-width: 1.0;"/><!--MD5=[bb3dd3b23949d9b0e9d1d4c6e2c176e3]
link ciceromark to ciceromark_noquotes--><path d="M485.425,278.103 C450.694,295.1088 407.338,317.8912 376.287,335.4235 " fill="none" id="ciceromark-&gt;ciceromark_noquotes" style="stroke: #A80036; stroke-width: 1.0;"/><polygon fill="#A80036" points="371.798,337.9708,381.5998,337.009,376.1469,335.5036,377.6523,330.0508,371.798,337.9708" style="stroke: #A80036; stroke-width: 1.0;"/><!--MD5=[ca69d75143c2778d93d28a68d532e159]
link ciceromark_noquotes to ciceromark--><path d="M394.321,337.8436 C429.044,320.9087 472.149,298.2651 503.013,280.779 " fill="none" id="ciceromark_noquotes-&gt;ciceromark" style="stroke: #A80036; stroke-width: 1.0;"/><polygon fill="#A80036" points="507.475,278.237,497.6749,279.2154,503.1303,280.7115,501.6341,286.167,507.475,278.237" style="stroke: #A80036; stroke-width: 1.0;"/><!--MD5=[28f1f96b9c6e8b785f893739dbde6f3d]
link ciceromark to ciceroedit--><path d="M577.163,278.237 C607.037,295.2598 650.139,318.0205 685.589,335.5194 " fill="none" id="ciceromark-&gt;ciceroedit" style="stroke: #A80036; stroke-width: 1.0;"/><polygon fill="#A80036" points="690.316,337.8436,684.0038,330.2835,685.8289,335.6378,680.4745,337.4629,690.316,337.8436" style="stroke: #A80036; stroke-width: 1.0;"/><!--MD5=[ba600c969dbb46cf8b137ccc74afeec1]
link ciceroedit to ciceromark--><path d="M712.838,337.9708 C683.071,320.912 639.722,298.0131 603.978,280.437 " fill="none" id="ciceroedit-&gt;ciceromark" style="stroke: #A80036; stroke-width: 1.0;"/><polygon fill="#A80036" points="599.211,278.103,605.5339,285.6542,603.7013,280.3024,609.053,278.4698,599.211,278.103" style="stroke: #A80036; stroke-width: 1.0;"/><!--MD5=[8f95a97eec0e361341d0cb8566491624]
link ciceromark to slate--><path d="M624.129,272.314 C700.652,288.102 817.256,312.3496 918,338 C927.405,340.3947 937.36,343.1549 947.246,345.9317 " fill="none" id="ciceromark-&gt;slate" style="stroke: #A80036; stroke-width: 1.0;"/><polygon fill="#A80036" points="952.091,347.2947,944.5108,341.0065,947.2779,345.9404,942.344,348.7075,952.091,347.2947" style="stroke: #A80036; stroke-width: 1.0;"/><!--MD5=[472583753a647be9303d3fd58ba006ed]
link slate to ciceromark--><path d="M952.67,337.916 C842.363,309.8436 713.118,283.461 629.245,268.022 " fill="none" id="slate-&gt;ciceromark" style="stroke: #A80036; stroke-width: 1.0;"/><polygon fill="#A80036" points="624.287,267.112,632.4185,272.6689,629.2051,268.0133,633.8606,264.7999,624.287,267.112" style="stroke: #A80036; stroke-width: 1.0;"/><!--MD5=[7a34f6c84d3ca9e43f68f262477dcfc4]
link pdf to ciceromark--><path d="M434.97,168.237 C456.366,184.982 484.856,207.279 507.063,224.658 " fill="none" id="pdf-&gt;ciceromark" style="stroke: #A80036; stroke-width: 1.0;"/><polygon fill="#A80036" points="511.133,227.844,506.5109,219.1471,507.1956,224.7623,501.5803,225.447,511.133,227.844" style="stroke: #A80036; stroke-width: 1.0;"/><!--MD5=[95331d1c54038c5a93fde858eead20bc]
link docx to ciceromark--><path d="M517.181,168.237 C521.957,184.357 528.258,205.621 533.316,222.691 " fill="none" id="docx-&gt;ciceromark" style="stroke: #A80036; stroke-width: 1.0;"/><polygon fill="#A80036" points="534.843,227.844,536.1197,218.0782,533.4217,223.0503,528.4497,220.3523,534.843,227.844" style="stroke: #A80036; stroke-width: 1.0;"/><!--MD5=[d504c56d6c16870f1caf2a6f77320bdc]
@startuml
hide empty description

markdown : 
markdown : Markdown format text string
markdown - -> commonmark

commonmark : 
commonmark : CommonMark DOM (JSON)
commonmark - -> markdown
commonmark - -> ciceromark
commonmark - -> plaintext

plaintext : 
plaintext : Plain text string
plaintext - -> markdown

ciceromark : 
ciceromark : CiceroMark DOM (JSON)
ciceromark - -> html
ciceromark - -> ciceromark_noquotes
ciceromark - -> ciceroedit
ciceromark - -> commonmark
ciceromark - -> slate

ciceromark_noquotes : 
ciceromark_noquotes : CiceroMark DOM (JSON) with quotes around variables removed
ciceromark_noquotes - -> ciceromark

ciceroedit : 
ciceroedit : Markdown string with embedded variable metadata
ciceroedit - -> ciceromark

pdf : 
pdf : PDF file
pdf - -> ciceromark

docx : 
docx : DOCX file
docx - -> ciceromark

html : 
html : HTML string
html - -> ciceromark

slate : 
slate : Slate DOM (JSON)
slate - -> ciceromark
@enduml

PlantUML version 1.2020.07beta9(Unknown compile time)
(GPL source distribution)
Java Runtime: Java(TM) SE Runtime Environment
JVM: Java HotSpot(TM) 64-Bit Server VM
Java Version: 1.7.0_25-b15
Operating System: Linux
Default Encoding: UTF-8
Language: en
Country: US
--></g></svg>